<svg width="77" height="107" viewBox="0 0 77 107" fill="none" xmlns="http://www.w3.org/2000/svg">
<ellipse rx="4.26252" ry="6.03857" transform="matrix(-1 0 0 1 4.32659 54.3918)" fill="#E4AE92"/>
<path d="M5.74756 58.2991L5.39235 51.3813C3.90977 49.6679 2.55067 50.289 2.19546 54.294C2.55067 56.8427 3.90033 57.8927 5.74756 58.2991Z" fill="#C49074" stroke="#C49074" stroke-width="0.71042"/>
<ellipse cx="71.8167" cy="55.8126" rx="4.26252" ry="6.03857" fill="#E4AE92"/>
<path d="M70.396 59.7199L70.7512 52.8021C72.2338 51.0887 73.5929 51.7098 73.9481 55.7149C73.5929 58.2635 72.2432 59.3136 70.396 59.7199Z" fill="#C49074" stroke="#C49074" stroke-width="0.71042"/>
<path d="M69.6855 75.3492C69.6855 75.3492 73.1291 34.211 69.3441 26.344C57.0233 0.735439 18.8279 0.0296149 6.55849 26.344C2.77914 34.4496 6.76293 69.5735 7.36217 74.6378C7.41191 75.0582 7.50048 75.4608 7.63081 75.8635C19.1546 111.471 59.7496 112.938 69.6855 75.3492Z" fill="#E4AE92"/>
<path d="M31.5914 42.5247C31.2362 43.2351 14.5414 44.3007 13.8309 43.9455C13.1205 43.5903 11.7557 40.7486 12.1109 40.7486C12.4661 40.7486 28.4506 37.9069 30.2268 37.9069C32.003 37.9069 31.9467 41.8142 31.5914 42.5247Z" fill="black" stroke="black" stroke-width="0.71042"/>
<ellipse cx="23.7747" cy="51.7601" rx="3.90731" ry="4.61773" fill="black"/>
<circle cx="24.4851" cy="49.6289" r="1.06563" fill="white"/>
<ellipse cx="52.9022" cy="51.7601" rx="3.90731" ry="4.61773" fill="black"/>
<circle cx="53.6128" cy="49.6289" r="1.06563" fill="white"/>
<path d="M44.9313 42.5247C45.2865 43.2351 61.9813 44.3007 62.6918 43.9455C63.4022 43.5903 64.767 40.7486 64.4118 40.7486C64.0566 40.7486 48.0721 37.9069 46.2959 37.9069C44.5198 37.9069 44.576 41.8142 44.9313 42.5247Z" fill="black" stroke="black" stroke-width="0.71042"/>
<path d="M6.55841 34.398C6.75273 40.854 5.79942 46.2694 5.49278 52.1585L4.78235 50.7377C3.02474 34.499 6.72493 19.8344 9.56661 15.9271C12.4083 12.0198 22.8981 7.40202 22.8981 7.40202L36.0409 6.6916C44.7391 6.49246 48.7983 6.92615 53.8015 9.17807C58.5912 8.47541 61.7309 13.0535 66.4002 19.0808C69.6197 22.2104 73.2623 34.9922 71.2067 50.7377L70.8515 52.1585C70.6547 46.3517 69.4737 41.6905 69.7858 34.398C66.5334 25.7526 59.8387 18.9371 60.3617 14.8183C47.9442 10.7868 41.2664 7.48815 15.6052 12.3318C15.619 16.5964 9.008 25.2993 6.55841 34.398Z" fill="#B77A63"/>
<path d="M24.8404 15.8839C28.9886 17.1636 31.5185 19.7843 36.6175 21.373C37.0291 21.5013 37.4769 21.4212 37.8278 21.1706C43.1736 17.3539 44.6746 16.4073 47.1781 16.5619C47.4368 16.5778 47.6987 16.5347 47.9333 16.4244C52.5419 14.2593 54.9982 13.628 58.5854 14.463C58.9542 17.3406 60.766 17.9412 63.3162 19.3053C63.4764 19.391 63.6524 19.4475 63.8331 19.4666C66.891 19.79 67.4742 19.2328 67.7498 18.0181C67.8027 17.7848 67.781 17.5397 67.7007 17.3143C66.1683 13.0147 64.2199 11.6144 60.7167 8.42446C54.9177 4.87021 45.0175 -0.30637 41.8905 1.32026C42.5267 2.60374 36.9176 -1.52139 36.9176 2.74113C34.162 1.60162 28.4235 -0.0889056 25.0349 1.32026C25.9574 3.43172 23.7505 2.94272 22.709 3.80673C17.9627 3.08803 15.4255 3.0832 13.9626 4.05513C13.3923 4.43406 13.4714 5.22345 13.9115 5.74801C15.0346 7.08669 14.5273 7.17112 13.8287 7.71404L9.21122 9.13489C6.26435 10.0464 6.77462 10.5584 9.56638 14.463C10.4539 15.6392 10.1033 16.3591 13.1183 16.5943C17.2081 17.7025 20.3628 17.3373 24.8404 15.8839Z" fill="#23130C" stroke="#23130C" stroke-width="0.71042"/>
<path d="M44.7322 69.1654C40.4216 70.2517 37.6748 70.2724 33.3655 69.1654C34.4711 70.8817 35.8675 71.584 39.0488 72.0071C42.6559 71.6122 43.5727 70.8212 44.7322 69.1654Z" fill="#B77A63"/>
<path d="M28.3926 77.3352C37.0782 81.9254 41.9139 81.8472 50.0604 77.3352C51.0823 93.5307 30.0635 92.8901 28.3926 77.3352Z" fill="white"/>
<path d="M30.1685 83.3738C36.9374 85.3816 45.235 84.5756 48.2842 83.0186" stroke="#AEAEAE" stroke-width="0.71042"/>
<path d="M44.0218 92.2541H37.2728C39.0134 94.7726 37.7465 97.227 37.2728 97.9374C35.1416 101.134 28.3926 98.6478 22.7092 97.227C24.1301 98.6478 30.4726 103.483 37.2728 105.397C40.6014 106.008 42.1129 105.914 44.0218 105.397C50.1707 103.096 55.7438 99.0031 57.5198 96.1614C50.4156 99.3583 45.8867 100.424 44.0218 97.9374C42.9562 96.5166 42.6268 95.1482 44.0218 92.2541Z" fill="#23130C" stroke="#23130C" stroke-width="0.71042"/>
</svg>
